ffmpeg started on 2025-06-27 at 12:10:53
Report written to "D:\Convert\FFMetrics\reports\ssim_report-6.txt"
Log level: 32
Command line:
ffmpeg -hide_banner -nostdin -i "G:\\\xc0\xed\xe8\xec\xe5\\[\xd2\xee\xef]\\\xcf\xee\xe2\xe5\xeb\xe8\xf2\xe5\xeb\xfc\\\xd2\xc2-3\\Special\\[Ohys-Raws] Overlord III - Sp.11 (BDRip-720p)_HEVC.mkv" -i "G:\\\xc0\xed\xe8\xec\xe5\\[\xd2\xee\xef]\\\xcf\xee\xe2\xe5\xeb\xe8\xf2\xe5\xeb\xfc\\\xd2\xc2-3\\Special\\[Ohys-Raws] Overlord III - Sp.11 (BDRip-720p).mkv" -lavfi "[0:v]settb=AVTB,setpts=PTS-STARTPTS,format=pix_fmts=yuv420p10,fps=24000/1001,scale=1280:720:flags=bicubic[main];[1:v]settb=AVTB,setpts=PTS-STARTPTS,format=pix_fmts=yuv420p,fps=24000/1001,scale=1280:720:flags=bicubic[ref];[main][ref]ssim=eof_action=endall:stats_file='D\\:/Convert/FFMetrics/logs/ssim_logfile-6.txt'" -f null -
Input #0, matroska,webm, from 'G:\Аниме\[Топ]\Повелитель\ТВ-3\Special\[Ohys-Raws] Overlord III - Sp.11 (BDRip-720p)_HEVC.mkv':
  Metadata:
    ENCODER         : Lavf61.7.100
  Duration: 00:01:32.12, start: -0.001000, bitrate: 480 kb/s
  Stream #0:0(jpn): Video: hevc (Main 10), yuv420p10le(tv, bt709, progressive), 1280x720 [SAR 1:1 DAR 16:9], 23.98 fps, 23.98 tbr, 1k tbn (default)
      Metadata:
        ENCODER         : Lavc61.19.100 libx265
        BPS             : 279397
        DURATION        : 00:01:32.091708333
        NUMBER_OF_FRAMES: 2208
        NUMBER_OF_BYTES : 3216245
        _STATISTICS_WRITING_APP: mkvpropedit v66.0.0 ('Josie') 64-bit
        _STATISTICS_WRITING_DATE_UTC: 2025-06-27 08:34:50
        _STATISTICS_TAGS: BPS DURATION NUMBER_OF_FRAMES NUMBER_OF_BYTES
  Stream #0:1(jpn): Audio: aac (LC), 48000 Hz, stereo, fltp (default)
      Metadata:
        ENCODER         : Lavc61.19.100 aac
        BPS             : 196951
        DURATION        : 00:01:32.075000000
        NUMBER_OF_FRAMES: 4317
        NUMBER_OF_BYTES : 2266788
        _STATISTICS_WRITING_APP: mkvpropedit v66.0.0 ('Josie') 64-bit
        _STATISTICS_WRITING_DATE_UTC: 2025-06-27 08:34:50
        _STATISTICS_TAGS: BPS DURATION NUMBER_OF_FRAMES NUMBER_OF_BYTES
Input #1, matroska,webm, from 'G:\Аниме\[Топ]\Повелитель\ТВ-3\Special\[Ohys-Raws] Overlord III - Sp.11 (BDRip-720p).mkv':
  Metadata:
    encoder         : libebml v1.2.3 + libmatroska v1.3.0
    creation_time   : 2019-10-11T21:15:09.000000Z
  Duration: 00:01:32.10, start: 0.000000, bitrate: 1023 kb/s
  Stream #1:0(jpn): Video: h264 (Main), yuv420p(progressive), 1280x720 [SAR 1:1 DAR 16:9], 23.98 fps, 23.98 tbr, 1k tbn (default)
  Stream #1:1(jpn): Audio: aac (LC), 48000 Hz, stereo, fltp (default)
Stream mapping:
  Stream #0:0 (hevc) -> settb:default
  Stream #1:0 (h264) -> settb:default
  ssim:default -> Stream #0:0 (wrapped_avframe)
  Stream #0:1 -> #0:1 (aac (native) -> pcm_s16le (native))
[swscaler @ 0000017b45e1ddc0] No accelerated colorspace conversion found from yuv420p to bgr48le.
[swscaler @ 0000017b45efd000] No accelerated colorspace conversion found from yuv420p to bgr48le.
[swscaler @ 0000017b46108d40] No accelerated colorspace conversion found from yuv420p to bgr48le.
[swscaler @ 0000017b461a4200] No accelerated colorspace conversion found from yuv420p to bgr48le.
[swscaler @ 0000017b462c6f80] No accelerated colorspace conversion found from yuv420p to bgr48le.
[swscaler @ 0000017b4636f040] No accelerated colorspace conversion found from yuv420p to bgr48le.
[swscaler @ 0000017b463d1040] No accelerated colorspace conversion found from yuv420p to bgr48le.
[swscaler @ 0000017b4642c040] No accelerated colorspace conversion found from yuv420p to bgr48le.
[swscaler @ 0000017b4649a740] No accelerated colorspace conversion found from yuv420p to bgr48le.
[swscaler @ 0000017b464e34c0] No accelerated colorspace conversion found from yuv420p to bgr48le.
[swscaler @ 0000017b46548040] No accelerated colorspace conversion found from yuv420p to bgr48le.
[swscaler @ 0000017b465b2040] No accelerated colorspace conversion found from yuv420p to bgr48le.
[swscaler @ 0000017b4660d040] No accelerated colorspace conversion found from yuv420p to bgr48le.
[swscaler @ 0000017b466a5040] No accelerated colorspace conversion found from yuv420p to bgr48le.
[swscaler @ 0000017b46710040] No accelerated colorspace conversion found from yuv420p to bgr48le.
[swscaler @ 0000017b4677c040] No accelerated colorspace conversion found from yuv420p to bgr48le.
Output #0, null, to 'pipe:':
  Metadata:
    encoder         : Lavf61.7.100
  Stream #0:0: Video: wrapped_avframe, yuv420p10le(tv, bt709, progressive), 1280x720 [SAR 1:1 DAR 16:9], q=2-31, 200 kb/s, 23.98 fps, 23.98 tbn
      Metadata:
        encoder         : Lavc61.19.100 wrapped_avframe
  Stream #0:1(jpn): Audio: pcm_s16le, 48000 Hz, stereo, s16, 1536 kb/s (default)
      Metadata:
        _STATISTICS_TAGS: BPS DURATION NUMBER_OF_FRAMES NUMBER_OF_BYTES
        BPS             : 196951
        DURATION        : 00:01:32.075000000
        NUMBER_OF_FRAMES: 4317
        NUMBER_OF_BYTES : 2266788
        _STATISTICS_WRITING_APP: mkvpropedit v66.0.0 ('Josie') 64-bit
        _STATISTICS_WRITING_DATE_UTC: 2025-06-27 08:34:50
        encoder         : Lavc61.19.100 pcm_s16le
frame=   78 fps=0.0 q=-0.0 size=N/A time=00:00:03.25 bitrate=N/A speed=6.29x    frame=  177 fps=172 q=-0.0 size=N/A time=00:00:07.38 bitrate=N/A speed=7.19x    frame=  270 fps=176 q=-0.0 size=N/A time=00:00:11.26 bitrate=N/A speed=7.32x    frame=  369 fps=179 q=-0.0 size=N/A time=00:00:15.39 bitrate=N/A speed=7.45x    frame=  462 fps=179 q=-0.0 size=N/A time=00:00:19.26 bitrate=N/A speed=7.48x    frame=  554 fps=180 q=-0.0 size=N/A time=00:00:23.10 bitrate=N/A speed=7.49x    frame=  657 fps=182 q=-0.0 size=N/A time=00:00:27.40 bitrate=N/A speed=7.59x    frame=  753 fps=183 q=-0.0 size=N/A time=00:00:31.40 bitrate=N/A speed=7.62x    frame=  842 fps=182 q=-0.0 size=N/A time=00:00:35.11 bitrate=N/A speed=7.58x    frame=  947 fps=184 q=-0.0 size=N/A time=00:00:39.49 bitrate=N/A speed=7.65x    frame= 1041 fps=184 q=-0.0 size=N/A time=00:00:43.41 bitrate=N/A speed=7.66x    frame= 1136 fps=184 q=-0.0 size=N/A time=00:00:47.38 bitrate=N/A speed=7.67x    frame= 1233 fps=184 q=-0.0 size=N/A time=00:00:51.42 bitrate=N/A speed=7.67x    frame= 1325 fps=184 q=-0.0 size=N/A time=00:00:55.26 bitrate=N/A speed=7.66x    frame= 1419 fps=184 q=-0.0 size=N/A time=00:00:59.18 bitrate=N/A speed=7.66x    frame= 1514 fps=183 q=-0.0 size=N/A time=00:01:03.14 bitrate=N/A speed=7.65x    frame= 1606 fps=183 q=-0.0 size=N/A time=00:01:06.98 bitrate=N/A speed=7.64x    frame= 1703 fps=184 q=-0.0 size=N/A time=00:01:11.02 bitrate=N/A speed=7.66x    frame= 1800 fps=184 q=-0.0 size=N/A time=00:01:15.07 bitrate=N/A speed=7.67x    frame= 1891 fps=183 q=-0.0 size=N/A time=00:01:18.87 bitrate=N/A speed=7.65x    frame= 1990 fps=184 q=-0.0 size=N/A time=00:01:22.99 bitrate=N/A speed=7.67x    frame= 2081 fps=184 q=-0.0 size=N/A time=00:01:26.79 bitrate=N/A speed=7.66x    frame= 2181 fps=184 q=-0.0 size=N/A time=00:01:30.96 bitrate=N/A speed=7.68x    [Parsed_ssim_10 @ 0000017b39ac6e40] SSIM Y:0.991238 (20.573993) U:0.990041 (20.017780) V:0.989814 (19.919834) All:0.990801 (20.362654)
[out#0/null @ 0000017b395ae200] video:949KiB audio:17268KiB subtitle:0KiB other streams:0KiB global headers:0KiB muxing overhead: unknown
frame= 2208 fps=184 q=-0.0 Lsize=N/A time=00:01:32.09 bitrate=N/A speed=7.68x    
